<?xml version="1.0" standalone="no"?>
<!DOCTYPE svg PUBLIC "-//W3C//DTD SVG 20010904//EN"
 "http://www.w3.org/TR/2001/REC-SVG-20010904/DTD/svg10.dtd">
<svg version="1.0" xmlns="http://www.w3.org/2000/svg"
 width="1600.000000pt" height="1600.000000pt" viewBox="0 0 1600.000000 1600.000000"
 preserveAspectRatio="xMidYMid meet">

<g transform="translate(0.000000,1600.000000) scale(0.100000,-0.100000)"
fill="#000000" stroke="none">
<path d="M7525 12761 c-226 -28 -354 -49 -526 -87 -1022 -225 -1940 -798
-2596 -1619 -508 -636 -842 -1400 -958 -2190 -47 -322 -60 -816 -30 -1126 34
-349 109 -703 217 -1024 90 -269 267 -655 400 -875 l64 -105 77 -3 78 -3 -39
58 c-104 154 -265 463 -351 677 -171 421 -263 782 -318 1241 -22 188 -25 714
-5 905 95 904 428 1710 992 2404 138 170 432 467 590 598 423 350 837 589
1340 776 330 122 671 201 1070 248 211 25 715 26 940 1 417 -46 809 -143 1175
-289 1555 -621 2627 -2028 2811 -3688 21 -196 29 -595 15 -775 -41 -525 -136
-933 -326 -1408 -85 -213 -252 -535 -356 -689 -44 -65 -43 -66 55 -58 l61 5
57 95 c281 466 488 1033 582 1600 75 450 77 1024 5 1475 -211 1325 -998 2501
-2141 3201 -549 336 -1113 538 -1769 635 -206 31 -228 32 -589 35 -314 2 -400
0 -525 -15z"/>
<path d="M7565 12535 c-752 -78 -1453 -338 -2069 -768 -905 -632 -1541 -1584
-1770 -2649 -73 -337 -96 -562 -96 -941 0 -630 107 -1157 351 -1731 121 -284
368 -716 410 -716 15 0 7 16 -40 88 -192 287 -376 679 -495 1049 -191 598
-247 1238 -166 1878 45 356 134 697 275 1055 56 145 224 479 315 630 341 564
857 1089 1411 1434 493 307 1047 517 1601 606 381 61 832 70 1213 26 1081
-127 2061 -644 2769 -1461 202 -232 307 -376 459 -629 538 -894 732 -1975 542
-3015 -103 -559 -354 -1183 -646 -1602 -30 -45 -36 -58 -24 -63 16 -6 38 23
127 169 325 531 521 1090 611 1738 19 144 22 204 22 542 0 407 -7 498 -61 795
-264 1451 -1253 2676 -2623 3250 -344 144 -726 247 -1121 301 -200 27 -788 36
-995 14z"/>
<path d="M7765 11730 c-22 -16 -213 -154 -425 -307 l-385 -278 -3 -476 -2
-476 297 -121 c164 -67 310 -126 326 -131 l27 -11 0 -1164 0 -1165 33 -6 c46
-8 329 -45 346 -45 7 0 -5 17 -28 38 l-42 37 3 209 3 209 102 -89 102 -89 1
-72 c0 -66 2 -73 20 -73 20 0 20 8 22 799 l3 799 108 -96 c96 -85 108 -99 105
-124 -5 -34 -1 -34 51 -5 l41 23 -30 29 -30 29 0 208 c0 114 2 208 5 208 3 0
53 -41 110 -92 l105 -92 0 -97 c0 -82 2 -97 15 -93 10 4 15 27 17 82 l3 77 48
-44 c45 -41 49 -43 75 -31 l27 12 -78 72 -78 71 3 209 3 209 107 -94 108 -94
0 -162 c0 -90 2 -163 5 -163 2 0 16 5 30 12 l25 11 0 687 0 687 -202 179
c-111 98 -305 271 -432 384 -127 112 -290 257 -363 322 -73 65 -133 118 -135
118 -2 -1 -21 -14 -43 -30z m268 -302 l88 -83 -3 -207 -3 -206 -102 90 -103
91 0 209 c0 243 -12 233 123 106z m265 -235 l82 -75 0 -204 c0 -112 -3 -204
-7 -204 -5 0 -54 41 -110 91 l-103 90 0 210 0 210 28 -21 c15 -12 64 -55 110
-97z m260 -230 l73 -68 -3 -208 -3 -208 -107 96 -108 96 0 210 0 211 38 -31
c20 -16 70 -60 110 -98z m-438 -322 l0 -213 -38 33 c-20 19 -67 61 -105 94
l-67 60 0 213 0 213 105 -93 104 -93 1 -214z m658 128 l102 -90 0 -210 0 -210
-29 23 c-16 13 -65 55 -110 93 l-80 70 -1 208 c0 114 3 207 8 207 4 0 53 -41
110 -91z m-510 -46 c53 -48 100 -92 104 -98 12 -16 10 -417 -2 -413 -5 2 -55
43 -110 91 l-100 89 0 209 c0 115 2 209 5 209 3 0 49 -39 103 -87z m278 -245
l83 -73 1 -208 c0 -123 -4 -207 -9 -205 -5 2 -55 43 -110 91 l-101 88 0 210 0
210 26 -20 c14 -11 64 -53 110 -93z m-426 -336 l0 -213 -105 93 -105 93 0 213
0 212 105 -92 105 -93 0 -213z m698 91 l63 -58 -3 -208 -3 -208 -107 96 -108
96 0 210 0 211 48 -40 c26 -23 75 -67 110 -99z m-542 -15 l104 -93 0 -202 c-1
-110 -4 -204 -7 -207 -3 -3 -52 36 -109 87 l-104 92 0 207 c0 115 3 208 6 208
3 0 52 -42 110 -92z m252 -223 l101 -90 0 -208 c1 -132 -3 -207 -9 -205 -5 2
-55 43 -110 91 l-100 89 0 210 c0 115 4 208 8 206 5 -1 54 -43 110 -93z m-475
-79 l67 -60 0 -208 c0 -114 -2 -208 -5 -208 -3 0 -50 39 -105 88 l-99 87 -1
214 0 213 38 -33 c20 -19 67 -61 105 -93z m327 -491 c0 -111 -3 -204 -6 -208
-3 -3 -53 36 -110 86 l-104 92 0 213 0 213 110 -97 110 -97 0 -202z m-260
-277 c0 -171 -2 -208 -13 -201 -8 4 -55 44 -105 88 l-92 80 0 213 0 213 105
-91 105 -92 0 -210z m-57 -240 l58 -53 -3 -209 -3 -209 -102 92 -103 92 0 211
0 210 48 -40 c26 -22 73 -64 105 -94z m-20 -480 l78 -73 -3 -207 -3 -208 -102
91 -103 91 0 210 0 209 28 -20 c15 -11 62 -53 105 -93z"/>
<path d="M5735 6673 c-688 -722 -726 -762 -689 -733 17 14 298 251 623 528
326 277 597 505 604 508 7 2 57 -30 112 -72 111 -84 368 -268 545 -389 l115
-79 -50 55 c-102 112 -710 749 -715 749 -3 0 -249 -255 -545 -567z"/>
<path d="M9855 6799 c-27 -5 -327 -47 -665 -94 -338 -47 -630 -88 -647 -91
l-33 -6 0 -92 0 -92 -40 -39 -40 -39 0 207 0 207 -125 0 -125 0 0 -80 c0 -44
-3 -80 -7 -80 -5 0 -77 -9 -161 -20 l-153 -19 -109 -103 c-59 -57 -315 -301
-568 -543 l-460 -440 1045 -3 1045 -2 112 117 c61 65 246 259 412 433 165 173
370 388 454 478 85 89 157 162 161 162 4 0 115 -114 247 -253 493 -520 491
-520 105 -35 -381 478 -346 445 -448 427z"/>
<path d="M6165 6528 c-81 -28 -135 -107 -135 -197 l0 -51 100 0 100 0 0 130
c0 143 1 141 -65 118z"/>
<path d="M6320 6410 l0 -130 106 0 106 0 -7 57 c-12 101 -64 171 -143 193 -64
17 -62 22 -62 -120z"/>
<path d="M6030 6090 l0 -100 99 0 100 0 3 100 3 100 -102 0 -103 0 0 -100z"/>
<path d="M6320 6090 l0 -100 105 0 105 0 0 100 0 100 -105 0 -105 0 0 -100z"/>
<path d="M8593 4825 c-102 -28 -169 -77 -209 -155 -27 -54 -25 -164 4 -215 46
-80 108 -110 360 -179 109 -31 140 -48 159 -94 12 -30 12 -37 -4 -70 -25 -51
-71 -74 -157 -80 -97 -6 -177 11 -269 56 l-77 38 -25 -55 c-14 -30 -24 -62
-23 -70 4 -23 123 -79 203 -96 292 -61 526 54 525 259 -1 147 -65 201 -330
271 -74 20 -148 44 -166 55 -88 55 -57 169 54 200 83 23 225 4 314 -41 l38
-20 20 47 c38 87 37 88 -18 112 -121 52 -286 67 -399 37z"/>
<path d="M3510 4365 l0 -465 85 0 85 0 0 135 0 135 125 0 124 0 93 -135 93
-134 93 -1 93 0 -19 28 c-151 215 -193 275 -190 277 2 1 14 8 28 15 58 30 101
74 131 135 30 61 31 69 27 157 -3 79 -8 101 -33 146 -47 86 -129 139 -251 161
-32 6 -154 11 -271 11 l-213 0 0 -465z m503 295 c72 -34 92 -69 92 -160 0 -63
-4 -80 -24 -109 -42 -58 -95 -74 -258 -79 l-143 -4 0 192 0 193 143 -5 c119
-5 150 -9 190 -28z"/>
<path d="M4480 4365 l0 -465 350 0 350 0 0 70 0 70 -265 0 -265 0 0 130 0 130
225 0 225 0 0 70 0 70 -225 0 -226 0 3 123 3 122 253 3 252 2 0 70 0 70 -340
0 -340 0 0 -465z"/>
<path d="M5651 4813 c-9 -19 -359 -795 -392 -870 l-18 -43 87 0 88 0 45 108
44 107 234 0 234 0 47 -105 47 -105 87 -3 c83 -3 87 -2 81 17 -3 10 -45 106
-94 212 -48 107 -139 308 -201 447 l-114 252 -83 0 c-68 0 -84 -3 -92 -17z
m177 -355 c45 -106 82 -196 82 -200 0 -5 -77 -8 -171 -8 -159 0 -171 1 -165
18 23 61 162 382 166 382 3 0 43 -87 88 -192z"/>
<path d="M6370 4365 l0 -465 325 0 326 0 -3 70 -3 71 -237 0 -238 0 0 394 0
395 -85 0 -85 0 0 -465z"/>
<path d="M7530 4365 l0 -465 345 0 345 0 0 70 0 70 -260 0 -260 0 0 130 0 130
225 0 225 0 0 70 0 70 -225 0 -225 0 0 125 0 125 255 0 256 0 -3 68 -3 67
-337 3 -338 2 0 -465z"/>
<path d="M9140 4760 l0 -70 150 0 150 0 1 -387 c1 -214 1 -391 0 -395 0 -5 37
-8 83 -8 69 0 85 3 90 17 4 9 6 185 6 392 l-1 376 150 3 151 3 0 69 0 70 -390
0 -390 0 0 -70z"/>
<path d="M10270 4668 c-81 -180 -190 -424 -281 -624 -32 -72 -59 -134 -59
-138 0 -4 39 -5 87 -4 l86 3 45 108 45 107 232 0 232 0 48 -110 48 -110 88 0
89 0 -14 33 c-11 25 -225 500 -381 845 l-24 52 -84 0 -84 0 -73 -162z m249
-222 c45 -104 79 -191 77 -193 -2 -2 -80 -2 -174 -1 l-171 3 78 180 c42 99 80
189 84 199 5 11 11 16 16 10 5 -5 45 -94 90 -198z"/>
<path d="M10930 4760 l0 -70 155 0 155 0 0 -395 0 -395 85 0 85 0 0 395 0 395
155 0 155 0 0 70 0 70 -395 0 -395 0 0 -70z"/>
<path d="M11850 4365 l0 -465 350 0 350 0 0 70 0 70 -265 0 -265 0 0 130 0
130 225 0 225 0 0 70 0 70 -225 0 -225 0 0 125 0 125 255 0 255 0 0 70 0 70
-340 0 -340 0 0 -465z"/>
<path d="M8813 3489 c-108 -53 -120 -210 -22 -280 48 -34 141 -39 196 -10 126
64 110 254 -26 300 -51 17 -101 13 -148 -10z m126 -50 c65 -23 83 -119 32
-170 -65 -64 -171 -20 -171 71 0 51 12 75 48 94 33 18 50 19 91 5z"/>
<path d="M10828 3502 c-22 -3 -36 -17 -69 -73 l-42 -70 -17 28 c-72 117 -69
113 -105 113 -19 0 -35 -3 -35 -6 0 -4 27 -51 60 -106 54 -89 60 -105 60 -153
l0 -55 35 0 35 0 0 60 c0 55 4 68 51 142 80 129 79 127 27 120z"/>
<path d="M5170 3340 l0 -160 35 0 c35 0 35 0 35 45 l0 45 49 0 c120 0 185 72
148 163 -23 53 -58 67 -172 67 l-95 0 0 -160z m185 90 c20 -16 19 -64 -1 -84
-10 -10 -33 -16 -65 -16 l-49 0 0 61 0 62 50 -5 c27 -3 56 -11 65 -18z"/>
<path d="M5549 3496 c-2 -2 -3 -74 -1 -160 l3 -156 34 0 c35 0 35 0 35 45 0
45 0 45 35 45 29 0 38 -6 65 -45 28 -41 35 -45 71 -45 l41 0 -36 50 -35 49 29
30 c25 25 30 37 30 78 0 51 -18 82 -57 102 -20 10 -204 16 -214 7z m189 -73
c34 -47 -3 -93 -75 -93 l-43 0 0 61 0 62 53 -6 c32 -4 57 -13 65 -24z"/>
<path d="M5920 3340 l0 -160 125 0 125 0 0 30 0 30 -89 0 -89 0 2 33 c2 17 4
35 5 40 0 4 35 7 76 7 73 0 75 1 75 25 0 23 -3 24 -77 27 l-78 3 0 35 0 35 88
3 c85 3 87 3 87 27 l0 25 -125 0 -125 0 0 -160z"/>
<path d="M6270 3340 l0 -160 35 0 34 0 3 92 3 93 44 -73 c56 -94 69 -93 130 8
l46 75 3 -97 3 -98 29 0 30 0 0 160 0 160 -30 0 c-26 0 -35 -9 -86 -95 -31
-52 -59 -95 -63 -95 -3 0 -31 43 -61 95 -52 89 -57 95 -87 95 l-33 0 0 -160z"/>
<path d="M6750 3340 l0 -160 35 0 35 0 0 160 0 160 -35 0 -35 0 0 -160z"/>
<path d="M6940 3389 c0 -128 13 -167 64 -194 24 -13 48 -17 94 -13 105 7 132
50 132 213 l0 105 -34 0 -34 0 -4 -109 c-2 -90 -6 -113 -22 -130 -26 -28 -79
-28 -106 1 -18 19 -20 35 -20 130 l0 108 -35 0 -35 0 0 -111z"/>
<path d="M7340 3340 l0 -160 35 0 35 0 0 91 c0 51 4 88 9 85 5 -3 26 -35 47
-71 52 -88 66 -87 124 13 l45 77 3 -97 3 -98 34 0 35 0 0 160 0 160 -33 0
c-31 0 -36 -6 -88 -91 -30 -51 -58 -92 -64 -92 -5 0 -34 41 -64 92 -52 85 -57
91 -88 91 l-33 0 0 -160z"/>
<path d="M7990 3340 l0 -160 35 0 c35 0 35 0 35 45 l0 45 53 0 c67 0 117 25
141 71 18 32 18 41 7 78 -19 65 -54 81 -173 81 l-98 0 0 -160z m186 89 c19
-16 17 -59 -3 -81 -11 -13 -30 -18 -65 -18 l-48 0 0 53 c0 30 3 57 8 61 10 11
92 -1 108 -15z"/>
<path d="M8361 3340 l1 -160 39 0 39 0 0 45 c0 45 0 45 34 45 30 0 40 -7 67
-45 29 -40 37 -45 72 -45 l39 0 -36 50 -35 49 29 30 c25 25 30 37 30 78 -1 51
-10 68 -50 96 -19 13 -47 17 -128 17 l-103 0 2 -160z m196 84 c35 -48 -1 -94
-74 -94 l-43 0 0 61 0 62 52 -5 c34 -4 56 -12 65 -24z"/>
<path d="M9170 3340 l0 -160 35 0 c35 0 35 0 35 45 l0 45 50 0 c120 0 185 72
150 164 -18 49 -64 66 -172 66 l-98 0 0 -160z m192 80 c37 -46 1 -90 -74 -90
l-48 0 0 53 c0 30 3 57 8 61 15 16 96 -1 114 -24z"/>
<path d="M9550 3340 l0 -160 125 0 125 0 0 30 0 30 -90 0 -90 0 0 40 0 40 75
0 c73 0 75 1 75 25 0 24 -2 25 -75 25 l-75 0 0 40 0 40 85 0 c84 0 85 0 85 25
l0 25 -120 0 -120 0 0 -160z"/>
<path d="M9896 3484 c-8 -20 -8 -131 0 -227 l7 -77 33 0 c34 0 34 1 34 45 0
45 0 45 34 45 30 0 40 -7 67 -45 29 -40 37 -45 72 -45 l39 0 -36 50 -35 49 29
30 c25 25 30 37 30 78 -1 51 -10 68 -50 96 -35 24 -215 25 -224 1z m192 -61
c34 -47 -3 -93 -75 -93 l-43 0 0 61 0 62 53 -6 c32 -4 57 -13 65 -24z"/>
<path d="M10240 3476 c0 -23 5 -25 48 -28 l47 -3 3 -132 3 -133 34 0 34 0 3
133 3 132 53 3 c48 3 52 5 52 28 l0 24 -140 0 -140 0 0 -24z"/>
</g>
</svg>
